<svg width="123" height="123" viewBox="0 0 123 123" fill="none" xmlns="http://www.w3.org/2000/svg">
<path d="M54.0688 66.625H41L61.5 46.125L82 66.625H68.9312V82H54.0688V66.625Z" fill="#C9C4C0"/>
<path fill-rule="evenodd" clip-rule="evenodd" d="M61.5 20.5C80.7109 20.5 96.8358 33.7125 101.283 51.5462C113.581 53.4281 123 64.0515 123 76.875C123 91.0273 111.527 102.5 97.375 102.5H30.75C13.7672 102.5 0 88.7327 0 71.75C0 56.4682 11.1476 43.79 25.7546 41.4037C32.7844 28.9265 46.1582 20.5 61.5 20.5ZM27.4072 51.5196L32.2674 50.7256L34.6847 46.4351C39.9721 37.0506 50.007 30.75 61.5 30.75C75.8944 30.75 88.002 40.65 91.338 54.0265L92.9889 60.6461L99.7328 61.6782C107.102 62.806 112.75 69.1903 112.75 76.875C112.75 85.3664 105.866 92.25 97.375 92.25H30.75C19.4282 92.25 10.25 83.0718 10.25 71.75C10.25 61.572 17.6773 53.1091 27.4072 51.5196Z" fill="#C9C4C0"/>
</svg>
