<svg width="20" height="20" viewBox="0 0 32 32" fill="none" xmlns="http://www.w3.org/2000/svg">
<path fill-rule="evenodd" clip-rule="evenodd" d="M2.50458 5.17157C3.25473 4.42143 4.27214 4 5.33301 4H14.6663C15.4027 4 15.9997 4.59695 15.9997 5.33333C15.9997 6.06971 15.4027 6.66667 14.6663 6.66667H5.33301C4.97939 6.66667 4.64025 6.80714 4.3902 7.05719C4.14015 7.30724 3.99967 7.64638 3.99967 8V26.6667C3.99967 27.0203 4.14015 27.3594 4.3902 27.6095C4.64025 27.8595 4.97939 28 5.33301 28H23.9997C24.3533 28 24.6924 27.8595 24.9425 27.6095C25.1925 27.3594 25.333 27.0203 25.333 26.6667V17.3333C25.333 16.597 25.93 16 26.6663 16C27.4027 16 27.9997 16.597 27.9997 17.3333V26.6667C27.9997 27.7275 27.5782 28.7449 26.8281 29.4951C26.078 30.2452 25.0605 30.6667 23.9997 30.6667H5.33301C4.27214 30.6667 3.25473 30.2452 2.50458 29.4951C1.75444 28.7449 1.33301 27.7275 1.33301 26.6667V8C1.33301 6.93913 1.75443 5.92172 2.50458 5.17157Z" fill="#FF7506"/>
<path fill-rule="evenodd" clip-rule="evenodd" d="M26.6664 3.83805C26.2698 3.83805 25.8896 3.99557 25.6092 4.27596L13.2037 16.6815L12.4989 19.5007L15.318 18.7959L27.7236 6.39034C28.0039 6.10995 28.1615 5.72967 28.1615 5.33315C28.1615 4.93662 28.0039 4.55634 27.7236 4.27596C27.4432 3.99557 27.0629 3.83805 26.6664 3.83805ZM23.7236 2.39034C24.504 1.60986 25.5626 1.17139 26.6664 1.17139C27.7701 1.17139 28.8287 1.60986 29.6092 2.39034C30.3897 3.17082 30.8281 4.22938 30.8281 5.33315C30.8281 6.43691 30.3897 7.49547 29.6092 8.27596L16.9425 20.9426C16.7716 21.1135 16.5575 21.2347 16.3231 21.2933L10.9898 22.6267C10.5354 22.7403 10.0547 22.6071 9.72356 22.276C9.39239 21.9448 9.25925 21.4641 9.37285 21.0098L10.7062 15.6764C10.7648 15.442 10.886 15.2279 11.0569 15.057L23.7236 2.39034Z" fill="#FF7506"/>
</svg>
