<svg width="32" height="32" viewBox="0 0 32 32" fill="none" xmlns="http://www.w3.org/2000/svg">
<path d="M31 5.00135H18V2.00135C18 1.70335 17.868 1.42135 17.638 1.23135C17.41 1.04135 17.104 0.959348 16.816 1.01935L0.816 4.01935C0.342 4.10735 0 4.51935 0 5.00135V27.0013C0 27.4813 0.342 27.8953 0.816 27.9833L16.816 30.9833C16.876 30.9953 16.938 31.0013 17 31.0013C17.232 31.0013 17.458 30.9213 17.638 30.7713C17.868 30.5813 18 30.2973 18 30.0013V27.0013H31C31.552 27.0013 32 26.5533 32 26.0013V6.00135C32 5.44935 31.552 5.00135 31 5.00135ZM13.752 19.3433C14.116 19.7573 14.074 20.3893 13.658 20.7533C13.468 20.9193 13.234 21.0013 13 21.0013C12.722 21.0013 12.446 20.8853 12.248 20.6593L9.34 17.3373L6.79 20.6173C6.592 20.8693 6.296 21.0013 6 21.0013C5.786 21.0013 5.57 20.9333 5.386 20.7913C4.95 20.4513 4.872 19.8233 5.21 19.3873L7.998 15.8033L5.248 12.6593C4.884 12.2453 4.926 11.6133 5.342 11.2493C5.756 10.8853 6.386 10.9253 6.754 11.3433L9.25 14.1953L12.212 10.3873C12.552 9.95335 13.18 9.87335 13.616 10.2133C14.052 10.5513 14.13 11.1793 13.79 11.6173L10.59 15.7293L13.752 19.3433ZM30 25.0013H18V23.0013H21C21.552 23.0013 22 22.5533 22 22.0013C22 21.4493 21.552 21.0013 21 21.0013H18V19.0013H21C21.552 19.0013 22 18.5533 22 18.0013C22 17.4493 21.552 17.0013 21 17.0013H18V15.0013H21C21.552 15.0013 22 14.5533 22 14.0013C22 13.4493 21.552 13.0013 21 13.0013H18V11.0013H21C21.552 11.0013 22 10.5533 22 10.0013C22 9.44935 21.552 9.00135 21 9.00135H18V7.00135H30V25.0013Z" fill="#0DA255"/>
<path d="M27 9H25C24.448 9 24 9.448 24 10C24 10.552 24.448 11 25 11H27C27.552 11 28 10.552 28 10C28 9.448 27.552 9 27 9Z" fill="#0DA255"/>
<path d="M27 13H25C24.448 13 24 13.448 24 14C24 14.552 24.448 15 25 15H27C27.552 15 28 14.552 28 14C28 13.448 27.552 13 27 13Z" fill="#0DA255"/>
<path d="M27 17H25C24.448 17 24 17.448 24 18C24 18.552 24.448 19 25 19H27C27.552 19 28 18.552 28 18C28 17.448 27.552 17 27 17Z" fill="#0DA255"/>
<path d="M27 21H25C24.448 21 24 21.448 24 22C24 22.552 24.448 23 25 23H27C27.552 23 28 22.552 28 22C28 21.448 27.552 21 27 21Z" fill="#0DA255"/>
</svg>
