<svg width="32" height="32" viewBox="0 0 32 32" fill="none" xmlns="http://www.w3.org/2000/svg">
<path fill-rule="evenodd" clip-rule="evenodd" d="M10.0785 5.23978C11.6452 3.59497 13.7748 2.66675 16 2.66675C18.2252 2.66675 20.3548 3.59497 21.9215 5.23978C23.4876 6.88383 24.3636 9.109 24.3636 11.4246C24.3636 15.7167 25.2383 18.3941 26.0528 19.9618C26.4615 20.7483 26.8605 21.2664 27.1402 21.5763C27.2803 21.7316 27.3911 21.8354 27.4593 21.895C27.4934 21.9248 27.5168 21.9436 27.5279 21.9523C27.5306 21.9544 27.5326 21.9559 27.5338 21.9569C27.9218 22.2358 28.0912 22.741 27.9516 23.2076C27.8108 23.6786 27.3879 24.0001 26.909 24.0001H5.09098C4.61211 24.0001 4.18922 23.6786 4.04835 23.2076C3.90883 22.741 4.07825 22.2358 4.4662 21.9569C4.46742 21.9559 4.46939 21.9544 4.4721 21.9523C4.48319 21.9436 4.50662 21.9248 4.54071 21.895C4.60886 21.8354 4.71974 21.7316 4.85984 21.5763C5.13948 21.2664 5.53854 20.7483 5.94716 19.9618C6.7617 18.3941 7.63642 15.7167 7.63642 11.4246C7.63642 9.109 8.51244 6.88383 10.0785 5.23978ZM7.45656 21.7545H24.5434C24.4062 21.5311 24.2671 21.287 24.1289 21.0208C23.1252 19.0891 22.1818 16.0402 22.1818 11.4246C22.1818 9.69038 21.5253 8.03152 20.3636 6.81187C19.2025 5.59296 17.6325 4.91236 16 4.91236C14.3675 4.91236 12.7975 5.59296 11.6364 6.81187C10.4747 8.03152 9.81822 9.69038 9.81822 11.4246C9.81822 16.0402 8.87478 19.0891 7.87114 21.0208C7.73285 21.287 7.59384 21.5311 7.45656 21.7545Z" fill="white" stroke="white" stroke-width="0.25" stroke-linecap="round" stroke-linejoin="round"/>
<path fill-rule="evenodd" clip-rule="evenodd" d="M9.90422 24.1349C10.4403 23.8483 11.1169 24.0332 11.4155 24.5479C11.8875 25.3615 12.5617 26.0315 13.3663 26.4949C14.1705 26.9581 15.0786 27.2001 16.0002 27.2001C16.9217 27.2001 17.8298 26.9581 18.634 26.4949C19.4386 26.0315 20.1129 25.3615 20.5848 24.5479C20.8834 24.0332 21.56 23.8483 22.0961 24.1349C22.6322 24.4215 22.8248 25.0711 22.5263 25.5858C21.8691 26.7187 20.9227 27.6644 19.7773 28.3242C18.6316 28.9841 17.3289 29.3333 16.0002 29.3333C14.6714 29.3333 13.3687 28.9841 12.223 28.3242C11.0777 27.6644 10.1312 26.7187 9.47406 25.5858C9.17552 25.0711 9.3681 24.4215 9.90422 24.1349Z" fill="white"/>
</svg>
