<svg width="32" height="32" viewBox="0 0 32 32" fill="none" xmlns="http://www.w3.org/2000/svg">
<path fill-rule="evenodd" clip-rule="evenodd" d="M15.9987 3.9987C9.37128 3.9987 3.9987 9.37128 3.9987 15.9987C3.9987 22.6261 9.37128 27.9987 15.9987 27.9987C22.6261 27.9987 27.9987 22.6261 27.9987 15.9987C27.9987 9.37128 22.6261 3.9987 15.9987 3.9987ZM1.33203 15.9987C1.33203 7.89852 7.89852 1.33203 15.9987 1.33203C24.0989 1.33203 30.6654 7.89852 30.6654 15.9987C30.6654 24.0989 24.0989 30.6654 15.9987 30.6654C7.89852 30.6654 1.33203 24.0989 1.33203 15.9987Z" fill="#FF7506"/>
<path fill-rule="evenodd" clip-rule="evenodd" d="M20.9441 11.0585C21.4648 11.5792 21.4648 12.4234 20.9441 12.9441L12.9441 20.9441C12.4234 21.4648 11.5792 21.4648 11.0585 20.9441C10.5378 20.4234 10.5378 19.5792 11.0585 19.0585L19.0585 11.0585C19.5792 10.5378 20.4234 10.5378 20.9441 11.0585Z" fill="#FF7506"/>
<path fill-rule="evenodd" clip-rule="evenodd" d="M11.0585 11.0585C11.5792 10.5378 12.4234 10.5378 12.9441 11.0585L20.9441 19.0585C21.4648 19.5792 21.4648 20.4234 20.9441 20.9441C20.4234 21.4648 19.5792 21.4648 19.0585 20.9441L11.0585 12.9441C10.5378 12.4234 10.5378 11.5792 11.0585 11.0585Z" fill="#FF7506"/>
</svg>
