<svg width="32" height="32" viewBox="0 0 32 32" fill="none" xmlns="http://www.w3.org/2000/svg">
<path fill-rule="evenodd" clip-rule="evenodd" d="M14.667 5.33317C9.51233 5.33317 5.33366 9.51185 5.33366 14.6665C5.33366 19.8212 9.51233 23.9998 14.667 23.9998C19.8217 23.9998 24.0003 19.8212 24.0003 14.6665C24.0003 9.51185 19.8217 5.33317 14.667 5.33317ZM2.66699 14.6665C2.66699 8.03909 8.03958 2.6665 14.667 2.6665C21.2944 2.6665 26.667 8.03909 26.667 14.6665C26.667 21.2939 21.2944 26.6665 14.667 26.6665C8.03958 26.6665 2.66699 21.2939 2.66699 14.6665Z" fill="white"/>
<path fill-rule="evenodd" clip-rule="evenodd" d="M21.2567 21.2572C21.7774 20.7365 22.6217 20.7365 23.1424 21.2572L28.9424 27.0572C29.4631 27.5779 29.4631 28.4221 28.9424 28.9428C28.4217 29.4635 27.5774 29.4635 27.0567 28.9428L21.2567 23.1428C20.736 22.6221 20.736 21.7779 21.2567 21.2572Z" fill="white"/>
<path d="M16.0003 14H15.3337V11.3333H16.667C16.8438 11.3333 17.0134 11.4036 17.1384 11.5286C17.2634 11.6536 17.3337 11.8232 17.3337 12C17.3337 12.1768 17.4039 12.3464 17.5289 12.4714C17.6539 12.5964 17.8235 12.6667 18.0003 12.6667C18.1771 12.6667 18.3467 12.5964 18.4717 12.4714C18.5968 12.3464 18.667 12.1768 18.667 12C18.667 11.4696 18.4563 10.9609 18.0812 10.5858C17.7061 10.2107 17.1974 10 16.667 10H15.3337V8.66667C15.3337 8.48986 15.2634 8.32029 15.1384 8.19526C15.0134 8.07024 14.8438 8 14.667 8C14.4902 8 14.3206 8.07024 14.1956 8.19526C14.0706 8.32029 14.0003 8.48986 14.0003 8.66667V10H13.3337C12.6264 10 11.9481 10.281 11.448 10.781C10.9479 11.2811 10.667 11.9594 10.667 12.6667C10.667 13.3739 10.9479 14.0522 11.448 14.5523C11.9481 15.0524 12.6264 15.3333 13.3337 15.3333H14.0003V18H12.667C12.4902 18 12.3206 17.9298 12.1956 17.8047C12.0706 17.6797 12.0003 17.5101 12.0003 17.3333C12.0003 17.1565 11.9301 16.987 11.8051 16.8619C11.68 16.7369 11.5105 16.6667 11.3337 16.6667C11.1568 16.6667 10.9873 16.7369 10.8623 16.8619C10.7372 16.987 10.667 17.1565 10.667 17.3333C10.667 17.8638 10.8777 18.3725 11.2528 18.7475C11.6279 19.1226 12.1366 19.3333 12.667 19.3333H14.0003V20.6667C14.0003 20.8435 14.0706 21.013 14.1956 21.1381C14.3206 21.2631 14.4902 21.3333 14.667 21.3333C14.8438 21.3333 15.0134 21.2631 15.1384 21.1381C15.2634 21.013 15.3337 20.8435 15.3337 20.6667V19.3333H16.0003C16.7076 19.3333 17.3858 19.0524 17.8859 18.5523C18.386 18.0522 18.667 17.3739 18.667 16.6667C18.667 15.9594 18.386 15.2811 17.8859 14.781C17.3858 14.281 16.7076 14 16.0003 14ZM14.0003 14H13.3337C12.98 14 12.6409 13.8595 12.3909 13.6095C12.1408 13.3594 12.0003 13.0203 12.0003 12.6667C12.0003 12.313 12.1408 11.9739 12.3909 11.7239C12.6409 11.4738 12.98 11.3333 13.3337 11.3333H14.0003V14ZM16.0003 18H15.3337V15.3333H16.0003C16.3539 15.3333 16.6931 15.4738 16.9431 15.7239C17.1932 15.9739 17.3337 16.313 17.3337 16.6667C17.3337 17.0203 17.1932 17.3594 16.9431 17.6095C16.6931 17.8595 16.3539 18 16.0003 18Z" fill="white" stroke="white" stroke-width="0.5"/>
</svg>
