<svg width="32" height="32" viewBox="0 0 32 32" fill="none" xmlns="http://www.w3.org/2000/svg">
<path fill-rule="evenodd" clip-rule="evenodd" d="M16 14C14.8954 14 14 14.8954 14 16C14 17.1046 14.8954 18 16 18C17.1046 18 18 17.1046 18 16C18 14.8954 17.1046 14 16 14ZM12 16C12 13.7909 13.7909 12 16 12C18.2091 12 20 13.7909 20 16C20 18.2091 18.2091 20 16 20C13.7909 20 12 18.2091 12 16Z" fill="white"/>
<path fill-rule="evenodd" clip-rule="evenodd" d="M15.9998 4.88897C15.7052 4.88897 15.4225 5.00603 15.2142 5.21441C15.0058 5.42278 14.8887 5.7054 14.8887 6.00008V6.1934C14.8864 6.76763 14.7163 7.32866 14.3992 7.80743C14.0821 8.2862 13.632 8.6618 13.1042 8.88801C13.0103 8.92828 12.9114 8.9553 12.8105 8.96849C12.3309 9.13643 11.8146 9.17783 11.3121 9.0867C10.7332 8.98174 10.199 8.70577 9.77843 8.29437L9.76967 8.2858L9.70305 8.21909C9.59986 8.11578 9.47688 8.03339 9.34199 7.97747C9.20711 7.92156 9.06252 7.89278 8.9165 7.89278C8.77049 7.89278 8.6259 7.92156 8.49101 7.97747C8.35613 8.03339 8.23359 8.11535 8.13039 8.21865L8.12952 8.21953C8.02621 8.32272 7.94426 8.44526 7.88834 8.58015C7.83243 8.71503 7.80364 8.85962 7.80364 9.00564C7.80364 9.15165 7.83243 9.29624 7.88834 9.43113C7.94426 9.56601 8.02621 9.68856 8.12952 9.79175L8.20529 9.86752C8.61668 10.2881 8.89261 10.8223 8.99757 11.4012C9.10045 11.9686 9.03443 12.5534 8.80812 13.0832C8.60194 13.6238 8.24092 14.0919 7.76989 14.4288C7.28933 14.7725 6.71648 14.9637 6.12582 14.9776L6.09984 14.9779H5.99984C5.70515 14.9779 5.42254 15.0949 5.21416 15.3033C5.00579 15.5117 4.88873 15.7943 4.88873 16.089C4.88873 16.3837 5.00579 16.6663 5.21416 16.8746C5.42254 17.083 5.70515 17.2001 5.99984 17.2001H6.19316C6.76739 17.2024 7.32842 17.3725 7.80719 17.6896C8.28429 18.0056 8.65895 18.4537 8.88541 18.9791C9.12104 19.5159 9.19107 20.1109 9.08646 20.6879C8.9815 21.2667 8.70552 21.8009 8.29413 22.2215L8.28556 22.2303L8.21884 22.2969C8.11554 22.4001 8.03315 22.523 7.97723 22.6579C7.92131 22.7928 7.89253 22.9374 7.89253 23.0834C7.89253 23.2294 7.92131 23.374 7.97723 23.5089C8.03315 23.6438 8.1151 23.7663 8.21841 23.8695L8.21928 23.8704C8.32247 23.9737 8.44501 24.0557 8.5799 24.1116C8.71479 24.1675 8.85938 24.1963 9.00539 24.1963C9.15141 24.1963 9.29599 24.1675 9.43088 24.1116C9.56577 24.0557 9.68831 23.9737 9.7915 23.8704L9.86727 23.7946C10.2878 23.3832 10.8221 23.1073 11.401 23.0023C11.9683 22.8995 12.5531 22.9655 13.0829 23.1918C13.6235 23.398 14.0917 23.759 14.4286 24.23C14.7723 24.7106 14.9635 25.2834 14.9773 25.8741L14.9776 25.9001V26.0001C14.9776 26.2948 15.0947 26.5774 15.3031 26.7858C15.5114 26.9941 15.794 27.1112 16.0887 27.1112C16.3834 27.1112 16.666 26.9941 16.8744 26.7858C17.0828 26.5774 17.1998 26.2948 17.1998 26.0001V25.8112L17.1998 25.8068C17.2021 25.2325 17.3723 24.6715 17.6894 24.1927C18.0053 23.7156 18.4535 23.3409 18.979 23.1145C19.5158 22.8789 20.1107 22.8089 20.6876 22.9135C21.2665 23.0184 21.8007 23.2944 22.2212 23.7058L22.23 23.7144L22.2966 23.7811C22.3998 23.8844 22.5228 23.9668 22.6577 24.0227C22.7926 24.0786 22.9372 24.1074 23.0832 24.1074C23.2292 24.1074 23.3738 24.0786 23.5087 24.0227C23.6435 23.9668 23.7661 23.8848 23.8693 23.7815L23.8702 23.7806C23.9735 23.6774 24.0554 23.5549 24.1113 23.42C24.1673 23.2851 24.196 23.1405 24.196 22.9945C24.196 22.8485 24.1673 22.7039 24.1113 22.569C24.0554 22.4341 23.9735 22.3116 23.8702 22.2084L23.7944 22.1326C23.383 21.7121 23.1071 21.1779 23.0021 20.599C22.8975 20.0221 22.9675 19.4271 23.2031 18.8903C23.4296 18.3649 23.8042 17.9167 24.2814 17.6007C24.7601 17.2836 25.3212 17.1135 25.8954 17.1112L25.8998 17.1112L25.9998 17.1112C26.2945 17.1112 26.5771 16.9941 26.7855 16.7858C26.9939 16.5774 27.111 16.2948 27.111 16.0001C27.111 15.7054 26.9939 15.4228 26.7855 15.2144C26.5771 15.006 26.2945 14.889 25.9998 14.889H25.8109L25.8065 14.889C25.2323 14.8867 24.6713 14.7165 24.1925 14.3995C23.7137 14.0824 23.3381 13.6323 23.1119 13.1045C23.0716 13.0105 23.0446 12.9117 23.0314 12.8108C22.8635 12.3312 22.8221 11.8149 22.9132 11.3123C23.0182 10.7334 23.2941 10.1992 23.7055 9.77868L23.7141 9.76992L23.7808 9.7033C23.8841 9.60011 23.9665 9.47712 24.0224 9.34224C24.0784 9.20735 24.1071 9.06276 24.1071 8.91675C24.1071 8.77073 24.0784 8.62615 24.0224 8.49126C23.9665 8.35637 23.8846 8.23383 23.7813 8.13064L23.7804 8.12976C23.6772 8.02646 23.5547 7.9445 23.4198 7.88859C23.2849 7.83267 23.1403 7.80389 22.9943 7.80389C22.8483 7.80389 22.7037 7.83267 22.5688 7.88859C22.4339 7.9445 22.3114 8.02646 22.2082 8.12976L22.1324 8.20553C21.7118 8.61693 21.1776 8.89285 20.5987 8.99782C20.0218 9.10243 19.4268 9.03239 18.89 8.79676C18.3645 8.5703 17.9164 8.19565 17.6005 7.71854C17.2834 7.23978 17.1132 6.67875 17.111 6.10451L17.1109 6.10008V6.00008C17.1109 5.7054 16.9939 5.42278 16.7855 5.21441C16.5771 5.00603 16.2945 4.88897 15.9998 4.88897ZM24.2221 19.3334L25.2386 19.782C25.1803 19.9141 25.1629 20.0605 25.1887 20.2025C25.2141 20.3429 25.2806 20.4726 25.3797 20.5753L25.4406 20.6362C25.4408 20.6363 25.4405 20.636 25.4406 20.6362C25.7504 20.9457 25.9965 21.3136 26.1642 21.7181C26.3319 22.1227 26.4183 22.5565 26.4183 22.9945C26.4183 23.4326 26.3319 23.8663 26.1642 24.271C25.9964 24.6757 25.7506 25.0433 25.4406 25.3529L24.6554 24.5667L25.4415 25.352C25.1319 25.6619 24.7643 25.9078 24.3596 26.0755C23.955 26.2433 23.5212 26.3296 23.0832 26.3296C22.6451 26.3296 22.2114 26.2433 21.8067 26.0755C21.4022 25.9079 21.0348 25.6621 20.7253 25.3524C20.7251 25.3523 20.7254 25.3526 20.7253 25.3524L20.6639 25.2911C20.5613 25.192 20.4316 25.1255 20.2911 25.1C20.1492 25.0743 20.0027 25.0917 19.8707 25.1499L19.8598 25.1547C19.7303 25.2102 19.6199 25.3023 19.5421 25.4197C19.4647 25.5367 19.4229 25.6737 19.4221 25.814V26.0001C19.4221 26.8841 19.0709 27.732 18.4457 28.3571C17.8206 28.9822 16.9728 29.3334 16.0887 29.3334C15.2047 29.3334 14.3568 28.9822 13.7317 28.3571C13.1066 27.732 12.7554 26.8841 12.7554 26.0001V25.916C12.7501 25.7747 12.7035 25.638 12.6211 25.5228C12.5368 25.4049 12.419 25.3151 12.283 25.2651C12.261 25.257 12.2393 25.2483 12.2179 25.2388C12.0859 25.1806 11.9394 25.1632 11.7974 25.1889C11.657 25.2144 11.5272 25.2809 11.4246 25.38L11.3637 25.4409C11.3636 25.441 11.3639 25.4407 11.3637 25.4409C11.0542 25.7506 10.6863 25.9967 10.2819 26.1644C9.8772 26.3322 9.44345 26.4185 9.00539 26.4185C8.56734 26.4185 8.13358 26.3322 7.72893 26.1644C7.32465 25.9968 6.95733 25.7513 6.64793 25.4418C6.33801 25.1322 6.09215 24.7645 5.9244 24.3599C5.75665 23.9552 5.67031 23.5215 5.67031 23.0834C5.67031 22.6454 5.75665 22.2116 5.9244 21.8069C6.09215 21.4023 6.33801 21.0347 6.64793 20.7251L6.70885 20.6642C6.80793 20.5615 6.87443 20.4318 6.89989 20.2914C6.92564 20.1494 6.90826 20.003 6.84999 19.8709L6.84518 19.86C6.78969 19.7306 6.69762 19.6201 6.58019 19.5424C6.46321 19.4649 6.32622 19.4232 6.18595 19.4223H5.99984C5.11578 19.4223 4.26794 19.0711 3.64281 18.446C3.01769 17.8209 2.6665 16.973 2.6665 16.089C2.6665 15.2049 3.01769 14.3571 3.64281 13.7319C4.26794 13.1068 5.11578 12.7556 5.99984 12.7556H6.08388C6.22521 12.7504 6.36196 12.7037 6.47712 12.6213C6.59499 12.537 6.68477 12.4192 6.7348 12.2832C6.74288 12.2612 6.75165 12.2395 6.7611 12.2181C6.81937 12.0861 6.83675 11.9397 6.811 11.7977C6.78554 11.6572 6.71904 11.5275 6.61995 11.4249L6.55904 11.364C6.24912 11.0544 6.00326 10.6868 5.83551 10.2821C5.66776 9.87744 5.58142 9.44369 5.58142 9.00564C5.58142 8.56759 5.66776 8.13383 5.83551 7.72917C6.00318 7.3247 6.24889 6.95723 6.55861 6.64774C6.86809 6.33803 7.23557 6.09231 7.64004 5.92465C8.0447 5.7569 8.47845 5.67056 8.9165 5.67056C9.35456 5.67056 9.78831 5.7569 10.193 5.92465C10.5976 6.09239 10.9653 6.33826 11.2748 6.64818L11.3357 6.70908C11.4384 6.80817 11.5681 6.87467 11.7085 6.90014C11.8505 6.92588 11.997 6.9085 12.129 6.85023C12.2001 6.81883 12.2742 6.79507 12.3499 6.77922C12.4274 6.72663 12.4943 6.65923 12.5464 6.58043C12.6239 6.46346 12.6656 6.32646 12.6665 6.18619V6.00008C12.6665 5.11603 13.0177 4.26818 13.6428 3.64306C14.2679 3.01794 15.1158 2.66675 15.9998 2.66675C16.8839 2.66675 17.7317 3.01794 18.3569 3.64306C18.982 4.26818 19.3332 5.11603 19.3332 6.00008V6.0973C19.3341 6.23758 19.3758 6.37457 19.4532 6.49154C19.531 6.60898 19.6414 6.70111 19.7709 6.75659L19.7818 6.76129C19.9138 6.81955 20.0603 6.83699 20.2023 6.81125C20.3427 6.78578 20.4724 6.71929 20.575 6.6202L20.6359 6.55929C20.9455 6.24937 21.3132 6.0035 21.7178 5.83576C22.1225 5.66801 22.5562 5.58167 22.9943 5.58167C23.4323 5.58167 23.8661 5.66801 24.2708 5.83576C24.6754 6.0035 25.043 6.24937 25.3526 6.55929C25.6621 6.86868 25.9077 7.236 26.0753 7.64028C26.243 8.04494 26.3294 8.47869 26.3294 8.91675C26.3294 9.3548 26.243 9.78856 26.0753 10.1932C25.9076 10.5977 25.6619 10.9652 25.3522 11.2746C25.352 11.2748 25.3523 11.2745 25.3522 11.2746L25.2908 11.336C25.1918 11.4386 25.1253 11.5683 25.0998 11.7088C25.074 11.8508 25.0914 11.9972 25.1497 12.1292C25.1811 12.2004 25.2048 12.2744 25.2207 12.3502C25.2733 12.4276 25.3407 12.4945 25.4195 12.5467C25.5365 12.6242 25.6735 12.6659 25.8137 12.6667H25.9998C26.8839 12.6667 27.7317 13.0179 28.3569 13.6431C28.982 14.2682 29.3332 15.116 29.3332 16.0001C29.3332 16.8841 28.982 17.732 28.3569 18.3571C27.7317 18.9822 26.8839 19.3334 25.9998 19.3334H25.9026C25.7623 19.3343 25.6254 19.376 25.5084 19.4535C25.3909 19.5312 25.2988 19.6417 25.2433 19.7711L24.2221 19.3334Z" fill="white"/>
</svg>
