<svg width="28" height="28" viewBox="0 0 28 28" fill="none" xmlns="http://www.w3.org/2000/svg">
<path fill-rule="evenodd" clip-rule="evenodd" d="M1.15466 11.1305C0.842098 11.3996 0.666504 11.7645 0.666504 12.1451V25.8986C0.666504 26.691 1.4127 27.3334 2.33317 27.3334H25.6665C26.587 27.3334 27.3332 26.691 27.3332 25.8986V12.1451C27.3332 11.7645 27.1576 11.3996 26.845 11.1305L15.1783 1.08699C14.5275 0.526669 13.4722 0.526668 12.8213 1.08699L1.15466 11.1305ZM24.6665 12.6667L13.9998 3.33341L3.33317 12.6667V24.6667H11.3332V17.6667C11.3332 17.1145 11.7809 16.6667 12.3332 16.6667H15.6665C16.2188 16.6667 16.6665 17.1145 16.6665 17.6667V24.6667H24.6665V12.6667Z" fill="white"/>
</svg>
