<svg width="26" height="26" viewBox="0 0 28 28" fill="none" xmlns="http://www.w3.org/2000/svg">
<path d="M19.3137 3.31371C17.192 1.19198 14.3143 -2.23561e-08 11.3137 0C8.31313 2.23561e-08 5.43544 1.19198 3.31371 3.31371C1.19198 5.43544 2.23561e-08 8.31313 0 11.3137C-2.23561e-08 14.3143 1.19198 17.192 3.31371 19.3137L10.3404 26.3537C10.4643 26.4787 10.6118 26.5779 10.7743 26.6456C10.9368 26.7133 11.111 26.7481 11.287 26.7481C11.4631 26.7481 11.6373 26.7133 11.7998 26.6456C11.9623 26.5779 12.1098 26.4787 12.2337 26.3537L19.3137 19.247C21.4266 17.1341 22.6136 14.2684 22.6136 11.2804C22.6136 8.2923 21.4266 5.42661 19.3137 3.31371ZM17.407 17.3404L11.3137 23.4604L5.22038 17.3404C4.01657 16.1355 3.19701 14.6007 2.8653 12.9301C2.53359 11.2595 2.70463 9.52804 3.35678 7.95462C4.00894 6.38119 5.11293 5.03644 6.52922 4.09034C7.9455 3.14425 9.61049 2.63928 11.3137 2.63928C13.0169 2.63928 14.6819 3.14425 16.0982 4.09034C17.5145 5.03644 18.6185 6.38119 19.2706 7.95462C19.9228 9.52804 20.0938 11.2595 19.7621 12.9301C19.4304 14.6007 18.6108 16.1355 17.407 17.3404ZM7.31371 7.22037C6.23733 8.30007 5.6329 9.76246 5.6329 11.287C5.6329 12.8116 6.23733 14.274 7.31371 15.3537C8.11339 16.1548 9.13183 16.7018 10.2412 16.9262C11.3507 17.1507 12.5016 17.0425 13.5498 16.6152C14.598 16.188 15.4966 15.4607 16.133 14.5247C16.7694 13.5887 17.1152 12.4855 17.127 11.3537C17.1331 10.598 16.9875 9.84872 16.6989 9.15022C16.4104 8.45173 15.9847 7.81818 15.447 7.28704C14.9186 6.74648 14.2885 6.31576 13.5929 6.01966C12.8974 5.72357 12.1502 5.56794 11.3942 5.56175C10.6383 5.55555 9.88864 5.6989 9.18834 5.98356C8.48803 6.26821 7.85094 6.68855 7.31371 7.22037ZM13.567 13.4604C13.0618 13.9734 12.394 14.2949 11.6779 14.37C10.9618 14.4452 10.2418 14.2692 9.64105 13.8723C9.04031 13.4753 8.59611 12.882 8.38438 12.1938C8.17266 11.5056 8.20657 10.7652 8.48032 10.0992C8.75406 9.43327 9.25064 8.88306 9.88515 8.54269C10.5197 8.20232 11.2527 8.09292 11.959 8.2332C12.6652 8.37348 13.3008 8.75472 13.7571 9.31175C14.2133 9.86878 14.4619 10.567 14.4604 11.287C14.441 12.1101 14.0957 12.8917 13.5004 13.4604H13.567Z" fill="#823B00"/>
</svg>
