<svg width="74" height="42" viewBox="0 0 74 42" fill="none" xmlns="http://www.w3.org/2000/svg">
<path d="M39.3194 24.336C37.8296 24.9023 36.1862 24.9023 34.6963 24.336L22.3016 19.6523C22.2248 20.2646 22.1787 20.8768 22.1787 21.5044C22.1787 29.6472 28.8292 36.2748 37.0002 36.2748C45.1712 36.2748 51.8217 29.6472 51.8217 21.5044C51.8217 20.8768 51.7756 20.2493 51.6988 19.6523L39.3194 24.336ZM45.3555 26.4023C45.3555 26.4023 45.4323 31.4687 37.0002 31.5605C28.5681 31.484 28.6449 26.4023 28.6449 26.4023V23.035L34.1434 25.1779C35.9712 25.8972 38.0139 25.8972 39.8416 25.1779L45.3402 23.035V26.4023H45.3555Z" fill="white"/>
<path d="M59.1631 12.3827C58.1955 12.3827 57.2586 12.4745 56.3524 12.6429C55.308 10.2398 53.8182 8.03571 51.8983 6.13775C47.9203 2.18878 42.6368 0 37 0C31.3632 0 26.0797 2.18878 22.1017 6.15306C20.1972 8.05102 18.692 10.2551 17.6476 12.6582C16.7414 12.4898 15.8045 12.398 14.8369 12.398C6.66583 12.3827 0 19.0255 0 27.1837C0 35.0663 6.22042 41.5255 14.0228 41.9694C14.2993 41.9847 14.5758 42 14.8522 42C15.1287 42 15.4051 41.9847 15.6816 41.9694H36.0016C36.3395 41.9847 36.6621 42 37 42C37.3379 42 37.6604 41.9847 37.9983 41.9694H58.3184C58.5948 41.9847 58.8713 42 59.1478 42C67.3341 42 74 35.3571 74 27.199C74.0153 19.0255 67.3495 12.3827 59.1631 12.3827ZM37 3.39796C45.0328 3.39796 51.8522 8.61735 54.2482 15.8265L49.6559 13.8061C47.0448 9.56633 42.3603 6.71939 37 6.71939C31.655 6.71939 26.9552 9.55102 24.3441 13.8061L19.7518 15.8265C22.1478 8.61735 28.9826 3.39796 37 3.39796ZM37 39.5969C26.9859 39.5969 18.8456 31.4847 18.8456 21.5051C18.8456 20.4643 18.9377 19.4388 19.1067 18.4439H19.0913L21.9174 17.2041H21.9327L34.3736 11.7245C36.0477 10.9898 37.9522 10.9898 39.6264 11.7245L52.0672 17.2041L54.8933 18.4439C55.0622 19.4388 55.1544 20.4643 55.1544 21.5051C55.1698 31.4847 47.0141 39.5969 37 39.5969Z" fill="white"/>
</svg>
