<svg width="26" height="26" viewBox="0 0 32 28" fill="none" xmlns="http://www.w3.org/2000/svg">
<path d="M27.2 0.666748H4.8C3.52696 0.666748 2.30606 1.19353 1.40589 2.13121C0.505713 3.0689 0 4.34067 0 5.66675V22.3334C0 23.6595 0.505713 24.9313 1.40589 25.869C2.30606 26.8066 3.52696 27.3334 4.8 27.3334H27.2C28.473 27.3334 29.6939 26.8066 30.5941 25.869C31.4943 24.9313 32 23.6595 32 22.3334V5.66675C32 4.34067 31.4943 3.0689 30.5941 2.13121C29.6939 1.19353 28.473 0.666748 27.2 0.666748V0.666748ZM4.8 4.00008H27.2C27.6243 4.00008 28.0313 4.17568 28.3314 4.48824C28.6314 4.8008 28.8 5.22472 28.8 5.66675L16 13.8001L3.2 5.66675C3.2 5.22472 3.36857 4.8008 3.66863 4.48824C3.96869 4.17568 4.37565 4.00008 4.8 4.00008V4.00008ZM28.8 22.3334C28.8 22.7754 28.6314 23.1994 28.3314 23.5119C28.0313 23.8245 27.6243 24.0001 27.2 24.0001H4.8C4.37565 24.0001 3.96869 23.8245 3.66863 23.5119C3.36857 23.1994 3.2 22.7754 3.2 22.3334V9.46675L15.168 17.0834C15.4112 17.2297 15.6871 17.3067 15.968 17.3067C16.2489 17.3067 16.5248 17.2297 16.768 17.0834L28.8 9.46675V22.3334Z" fill="#823B00"/>
</svg>
