<svg width="40" height="40" viewBox="0 0 40 40" fill="none" xmlns="http://www.w3.org/2000/svg">
<g clip-path="url(#clip0_3013_98312)">
<path d="M14.2155 16.3559L13.0296 23.4484C12.1735 23.3073 6.78571 22.4139 5.92178 22.265L4.73584 15.7603L5.92178 9.25562H10.6577L14.2155 16.3559Z" fill="#C6EA4B"/>
<path d="M13.0298 15.8308V23.4484C13.9094 23.2995 19.2736 22.406 20.1376 22.265C17.2709 20.9092 14.7576 18.6991 13.0298 15.8308Z" fill="#00DC7B"/>
<path d="M13.0296 35.2665H5.92178L4.73584 28.7618L5.92178 22.2571H13.0296L14.2155 28.7618L13.0296 35.2665Z" fill="#FFE278"/>
<path d="M20.1376 35.2665H13.0298V22.2649H20.1376C20.279 23.0486 21.1743 27.9702 21.3235 28.7696C21.1822 29.5533 20.279 34.4749 20.1376 35.2665Z" fill="#FFB454"/>
<path d="M38.4842 18.1114L37.3376 16.9672C37.1883 16.8183 36.9527 16.8183 36.8035 16.9672L35.8139 17.9546L34.7929 16.9437C34.6594 16.8104 34.4395 16.8104 34.3059 16.9437L33.0964 18.1506C32.9708 18.276 32.9708 18.4797 33.0964 18.5973L34.1253 19.6239L33.1514 20.5957C32.9943 20.7525 32.9943 21.0032 33.1514 21.16L34.251 22.2572C34.4159 22.4217 34.6751 22.4217 34.84 22.2572L35.7982 21.301L36.7485 22.2493C36.9134 22.4139 37.1883 22.4139 37.3533 22.2493L38.4371 21.1678C38.5942 21.0111 38.5942 20.7525 38.4371 20.5957L37.4632 19.6239L38.4607 18.6286C38.6256 18.4954 38.6256 18.2603 38.4842 18.1114Z" fill="#00DC7B"/>
<path d="M21.0015 1.51255L19.9333 0.438881C19.7763 0.282141 19.5171 0.282141 19.36 0.438881L18.1191 1.67713L16.8389 0.41537C16.6975 0.274304 16.4698 0.274304 16.3205 0.41537L15.1974 1.53606C15.0325 1.70064 15.0325 1.96709 15.1974 2.13167L16.9253 3.85581V6.91224H18.9123C19.1244 6.91224 19.2893 6.73982 19.2893 6.53606V3.84797L20.9936 2.14734C21.1821 1.96709 21.1821 1.68496 21.0015 1.51255Z" fill="#FF884D"/>
<path d="M20.1375 22.2649V35.2665H27.2452V24.6317C26.8525 24.4984 20.5301 22.3981 20.1375 22.2649Z" fill="#FF884D"/>
<path d="M0 34.083V36.4498H20.1374L21.3234 35.2664L20.1374 34.083H0Z" fill="#72BBFF"/>
<path d="M4.51595 0.0940439L0.816752 3.78527C0.667528 3.93417 0.667528 4.16928 0.816752 4.31035L1.97913 5.47022C2.1205 5.61129 2.34041 5.61129 2.47393 5.47022L3.54992 4.39655V40H5.9218V4.39655L6.98993 5.45455C7.13916 5.60345 7.37477 5.60345 7.51614 5.45455L8.70209 4.27116C8.82775 4.14577 8.82775 3.94201 8.70209 3.81661L4.95577 0.0940439C4.83796 -0.031348 4.64161 -0.031348 4.51595 0.0940439Z" fill="#8095FF"/>
<path d="M10.8149 5.83866C9.83312 13.033 13.6501 19.9452 20.1375 23.033L21.3234 22.2728L20.1375 20.3684C15.0952 17.4531 12.315 11.9985 13.2025 6.15997C13.2182 6.06593 13.1553 5.97972 13.0611 5.96405C12.7077 5.89352 11.8123 5.71327 11.1447 5.59571C10.9876 5.55653 10.8384 5.67408 10.8149 5.83866Z" fill="#D5E8FE"/>
<path d="M35.7196 31.3949L34.6986 32.4137C34.5023 32.6097 34.5023 32.9153 34.6986 33.1112L35.6804 34.0909H20.1375V36.4576H35.6804L34.6593 37.4764C34.4866 37.6488 34.4866 37.9231 34.6593 38.0956L35.7039 39.1379C35.8767 39.3103 36.1594 39.3103 36.3401 39.1379L39.8508 35.6347C40.055 35.431 40.055 35.1097 39.8508 34.9137L36.3322 31.4028C36.1594 31.2304 35.8846 31.2304 35.7196 31.3949Z" fill="#8095FF"/>
<path d="M29.68 22.0612C26.452 22.6176 23.067 22.0612 20.1375 20.3606V23.0252C23.2869 24.522 26.774 24.9531 30.0884 24.381C30.6224 24.2869 30.9759 23.7697 30.8502 23.2368L30.7324 22.7352C30.6146 22.2728 30.159 21.975 29.68 22.0612Z" fill="#B5DBFF"/>
</g>
<defs>
<clipPath id="clip0_3013_98312">
<rect width="40" height="40" fill="white"/>
</clipPath>
</defs>
</svg>
