<svg width="26" height="26" viewBox="0 0 28 28" fill="none" xmlns="http://www.w3.org/2000/svg">
<path d="M23.9201 15.3335C23.6268 15.3335 23.3201 15.2402 23.0268 15.1735C22.4328 15.0426 21.849 14.8688 21.2801 14.6535C20.6616 14.4285 19.9817 14.4401 19.3712 14.6863C18.7608 14.9324 18.2629 15.3957 17.9735 15.9868L17.6801 16.5868C16.3815 15.8644 15.1881 14.9671 14.1335 13.9201C13.0865 12.8655 12.1892 11.6721 11.4668 10.3735L12.0268 10.0001C12.618 9.7107 13.0812 9.21286 13.3273 8.6024C13.5735 7.99195 13.5852 7.31203 13.3601 6.69348C13.1484 6.12338 12.9747 5.53988 12.8401 4.94682C12.7735 4.65348 12.7201 4.34682 12.6801 4.04015C12.5182 3.10098 12.0263 2.25047 11.293 1.6418C10.5596 1.03313 9.63306 0.706295 8.68013 0.72015H4.68013C4.10551 0.714754 3.53647 0.833234 3.01175 1.06752C2.48703 1.30181 2.01895 1.64641 1.63937 2.07786C1.2598 2.50931 0.977647 3.01747 0.812118 3.56777C0.64659 4.11806 0.601574 4.69756 0.680134 5.26682C1.39045 10.8527 3.94151 16.0427 7.93034 20.017C11.9192 23.9913 17.1184 26.5235 22.7068 27.2135H23.2135C24.1967 27.2149 25.146 26.8542 25.8801 26.2001C26.302 25.8229 26.6389 25.3604 26.8688 24.8432C27.0986 24.3261 27.2161 23.7661 27.2135 23.2001V19.2001C27.1971 18.274 26.8599 17.3822 26.2593 16.677C25.6586 15.9719 24.8319 15.497 23.9201 15.3335ZM24.5868 23.3335C24.5866 23.5228 24.546 23.7099 24.4678 23.8823C24.3897 24.0547 24.2757 24.2085 24.1335 24.3335C23.9845 24.4621 23.8103 24.5582 23.622 24.6156C23.4337 24.673 23.2355 24.6905 23.0401 24.6668C18.0467 24.0266 13.4084 21.7421 9.85709 18.1739C6.30573 14.6056 4.04335 9.9566 3.4268 4.96015C3.40558 4.76484 3.42418 4.56726 3.48147 4.37934C3.53876 4.19142 3.63356 4.01707 3.76013 3.86682C3.88508 3.72459 4.03888 3.6106 4.21131 3.53244C4.38373 3.45427 4.57082 3.41372 4.76013 3.41348H8.76013C9.0702 3.40658 9.37296 3.50799 9.61633 3.70024C9.85969 3.8925 10.0284 4.16358 10.0935 4.46682C10.1468 4.83126 10.2135 5.19126 10.2935 5.54682C10.4475 6.24968 10.6525 6.94039 10.9068 7.61348L9.04013 8.48015C8.88053 8.55338 8.73696 8.65741 8.61768 8.78628C8.49839 8.91514 8.40574 9.0663 8.34503 9.23108C8.28432 9.39585 8.25676 9.57099 8.26393 9.74645C8.2711 9.9219 8.31285 10.0942 8.3868 10.2535C10.3057 14.3638 13.6098 17.6679 17.7201 19.5868C18.0447 19.7202 18.4089 19.7202 18.7335 19.5868C18.8997 19.5273 19.0526 19.4354 19.183 19.3164C19.3135 19.1974 19.419 19.0536 19.4935 18.8935L20.3201 17.0268C21.0094 17.2733 21.7129 17.4781 22.4268 17.6402C22.7824 17.7201 23.1424 17.7868 23.5068 17.8402C23.81 17.9052 24.0811 18.0739 24.2734 18.3173C24.4656 18.5607 24.567 18.8634 24.5601 19.1735L24.5868 23.3335Z" fill="#823B00"/>
</svg>
