<svg width="32" height="32" viewBox="0 0 32 32" fill="none" xmlns="http://www.w3.org/2000/svg">
<path d="M10 13H8V17H10C11.102 17 12 16.102 12 15C12 13.898 11.102 13 10 13Z" fill="#F35A03"/>
<path d="M30.9353 4.98466H17.9624V1.99717C17.9624 1.70041 17.8307 1.41959 17.6012 1.23038C17.3737 1.04118 17.0683 0.959517 16.7809 1.01927L0.814297 4.00676C0.341286 4.09439 0 4.50467 0 4.98466V26.8929C0 27.3709 0.341286 27.7832 0.814297 27.8708L16.7809 30.8583C16.8408 30.8703 16.9027 30.8762 16.9645 30.8762C17.196 30.8762 17.4216 30.7966 17.6012 30.6472C17.8307 30.458 17.9624 30.1752 17.9624 29.8804V26.8929H30.9353C31.4862 26.8929 31.9332 26.4468 31.9332 25.8971V5.98049C31.9332 5.4308 31.4862 4.98466 30.9353 4.98466ZM9.97914 18.9263H7.98331V21.9138C7.98331 22.4635 7.53624 22.9096 6.9854 22.9096C6.43455 22.9096 5.98748 22.4635 5.98748 21.9138V11.9555C5.98748 11.4058 6.43455 10.9596 6.9854 10.9596H9.97914C12.1805 10.9596 13.9708 12.7462 13.9708 14.943C13.9708 17.1398 12.1805 18.9263 9.97914 18.9263ZM29.9374 24.9013H17.9624V22.9096H26.9437C27.4945 22.9096 27.9416 22.4635 27.9416 21.9138C27.9416 21.3641 27.4945 20.9179 26.9437 20.9179H17.9624V13.9471V6.97632H29.9374V24.9013Z" fill="#F35A03"/>
<path d="M22 14.9996V9.09961C19.718 9.56361 18 11.5816 18 13.9996C18 16.7616 20.238 18.9996 23 18.9996C25.418 18.9996 27.436 17.2816 27.9 14.9996H22Z" fill="#F35A03"/>
<path d="M24 9.09961V12.9996H27.9C27.502 11.0416 25.958 9.49761 24 9.09961Z" fill="#F35A03"/>
</svg>
