<svg width="28" height="28" viewBox="0 0 32 32" fill="none" xmlns="http://www.w3.org/2000/svg">
<path fill-rule="evenodd" clip-rule="evenodd" d="M12.3909 4.39069C12.6409 4.14064 12.98 4.00016 13.3337 4.00016H18.667C19.0206 4.00016 19.3598 4.14064 19.6098 4.39069C19.8598 4.64074 20.0003 4.97987 20.0003 5.3335V6.66683H12.0003V5.3335C12.0003 4.97987 12.1408 4.64074 12.3909 4.39069ZM9.33366 6.66683V5.3335C9.33366 4.27263 9.75509 3.25521 10.5052 2.50507C11.2554 1.75492 12.2728 1.3335 13.3337 1.3335H18.667C19.7279 1.3335 20.7453 1.75492 21.4954 2.50507C22.2456 3.25521 22.667 4.27263 22.667 5.3335V6.66683H25.3337H28.0003C28.7367 6.66683 29.3337 7.26378 29.3337 8.00016C29.3337 8.73654 28.7367 9.3335 28.0003 9.3335H26.667V26.6668C26.667 27.7277 26.2456 28.7451 25.4954 29.4953C24.7453 30.2454 23.7279 30.6668 22.667 30.6668H9.33366C8.27279 30.6668 7.25538 30.2454 6.50523 29.4953C5.75509 28.7451 5.33366 27.7277 5.33366 26.6668V9.3335H4.00033C3.26395 9.3335 2.66699 8.73654 2.66699 8.00016C2.66699 7.26378 3.26395 6.66683 4.00033 6.66683H6.66699H9.33366ZM8.00033 9.3335V26.6668C8.00033 27.0205 8.1408 27.3596 8.39085 27.6096C8.6409 27.8597 8.98004 28.0002 9.33366 28.0002H22.667C23.0206 28.0002 23.3598 27.8597 23.6098 27.6096C23.8598 27.3596 24.0003 27.0204 24.0003 26.6668V9.3335H8.00033ZM18.667 13.3335C19.4034 13.3335 20.0003 13.9304 20.0003 14.6668V22.6668C20.0003 23.4032 19.4034 24.0002 18.667 24.0002C17.9306 24.0002 17.3337 23.4032 17.3337 22.6668V14.6668C17.3337 13.9304 17.9306 13.3335 18.667 13.3335ZM14.667 14.6668C14.667 13.9304 14.07 13.3335 13.3337 13.3335C12.5973 13.3335 12.0003 13.9304 12.0003 14.6668V22.6668C12.0003 23.4032 12.5973 24.0002 13.3337 24.0002C14.07 24.0002 14.667 23.4032 14.667 22.6668V14.6668Z" fill="#FF7506"/>
</svg>
