<svg width="32" height="32" viewBox="0 0 32 32" fill="none" xmlns="http://www.w3.org/2000/svg">
<path d="M28.2103 2.91726C27.2558 2.75448 26.2893 2.67068 25.3208 2.66675C22.0163 2.66407 18.7808 3.60231 15.9998 5.36963C13.2117 3.62551 9.9767 2.7103 6.67887 2.73268C5.71035 2.73661 4.74384 2.8204 3.78937 2.98319C3.47673 3.03656 3.1936 3.1987 2.99098 3.44043C2.78836 3.68215 2.67956 3.98756 2.68417 4.30166V20.1234C2.68132 20.3171 2.72162 20.5091 2.80221 20.6856C2.88281 20.8622 3.0017 21.019 3.15045 21.1448C3.2992 21.2707 3.47413 21.3626 3.66281 21.4139C3.8515 21.4653 4.04928 21.4748 4.2421 21.4418C6.15026 21.1147 8.10525 21.169 9.9919 21.6015C11.8785 22.034 13.6587 22.8359 15.2275 23.9601L15.3873 24.0524H15.5338C15.6815 24.1133 15.8399 24.1447 15.9998 24.1447C16.1598 24.1447 16.3182 24.1133 16.4659 24.0524H16.6124L16.7721 23.9601C18.33 22.8108 20.1051 21.9829 21.9921 21.5254C23.8791 21.0679 25.8397 20.9902 27.7576 21.2968C27.9504 21.3298 28.1482 21.3202 28.3369 21.2689C28.5255 21.2176 28.7005 21.1257 28.8492 20.9998C28.998 20.8739 29.1169 20.7171 29.1975 20.5406C29.278 20.364 29.3184 20.1721 29.3155 19.9783V4.15663C29.3016 3.85622 29.1845 3.56953 28.9835 3.3441C28.7825 3.11868 28.5096 2.96807 28.2103 2.91726ZM14.6683 20.4398C12.2047 19.1565 9.46253 18.4868 6.67887 18.4885C6.23945 18.4885 5.80004 18.4885 5.3473 18.4885V5.3037C5.79079 5.2784 6.23538 5.2784 6.67887 5.3037C9.51962 5.3006 12.2984 6.12602 14.6683 7.67696V20.4398ZM26.6524 18.5412C26.1996 18.5412 25.7602 18.5412 25.3208 18.5412C22.5371 18.5395 19.795 19.2092 17.3314 20.4925V7.67696C19.7013 6.12602 22.4801 5.3006 25.3208 5.3037C25.7643 5.2784 26.2089 5.2784 26.6524 5.3037V18.5412ZM28.2103 24.0129C27.2558 23.8501 26.2893 23.7663 25.3208 23.7624C22.0163 23.7597 18.7808 24.6979 15.9998 26.4652C13.2189 24.6979 9.98333 23.7597 6.67887 23.7624C5.71035 23.7663 4.74384 23.8501 3.78937 24.0129C3.61604 24.0401 3.44985 24.101 3.30037 24.1921C3.15089 24.2831 3.02106 24.4025 2.91835 24.5434C2.81564 24.6843 2.74208 24.844 2.70189 25.0131C2.6617 25.1823 2.65568 25.3576 2.68417 25.5291C2.75184 25.8715 2.9538 26.1734 3.24581 26.3686C3.53783 26.5638 3.89608 26.6365 4.2421 26.5707C6.15026 26.2436 8.10525 26.2979 9.9919 26.7303C11.8785 27.1628 13.6587 27.9648 15.2275 29.089C15.453 29.248 15.723 29.3334 15.9998 29.3334C16.2767 29.3334 16.5466 29.248 16.7721 29.089C18.341 27.9648 20.1211 27.1628 22.0078 26.7303C23.8944 26.2979 25.8494 26.2436 27.7576 26.5707C28.1036 26.6365 28.4618 26.5638 28.7539 26.3686C29.0459 26.1734 29.2478 25.8715 29.3155 25.5291C29.344 25.3576 29.338 25.1823 29.2978 25.0131C29.2576 24.844 29.184 24.6843 29.0813 24.5434C28.9786 24.4025 28.8488 24.2831 28.6993 24.1921C28.5498 24.101 28.3836 24.0401 28.2103 24.0129Z" fill="white"/>
</svg>
