<svg width="32" height="32" viewBox="0 0 32 32" fill="none" xmlns="http://www.w3.org/2000/svg">
<path d="M21.5863 6.69482C21.9265 6.8778 22.3294 6.92589 22.7069 6.8286C23.0844 6.73132 23.406 6.49655 23.6015 6.17552C23.7633 5.90514 24.0152 5.69326 24.3178 5.57311C24.6203 5.45295 24.9565 5.43131 25.2734 5.51158C25.5904 5.59186 25.8703 5.7695 26.0692 6.01666C26.2681 6.26382 26.3747 6.56651 26.3724 6.87727C26.3724 7.24951 26.2163 7.60649 25.9384 7.8697C25.6606 8.13291 25.2837 8.28078 24.8907 8.28078C24.4977 8.28078 24.1208 8.42865 23.8429 8.69186C23.565 8.95507 23.4089 9.31206 23.4089 9.68429C23.4089 10.0565 23.565 10.4135 23.8429 10.6767C24.1208 10.9399 24.4977 11.0878 24.8907 11.0878C25.6709 11.0873 26.4372 10.8924 27.1126 10.5225C27.7881 10.1527 28.3489 9.62094 28.7387 8.98078C29.1285 8.34062 29.3335 7.61457 29.3332 6.87559C29.3329 6.1366 29.1272 5.41071 28.7369 4.77084C28.3466 4.13098 27.7853 3.59969 27.1096 3.23035C26.4338 2.86101 25.6673 2.66663 24.8871 2.66675C24.1069 2.66687 23.3405 2.86148 22.6648 3.23102C21.9892 3.60056 21.4281 4.13203 21.038 4.77201C20.94 4.9322 20.8765 5.10916 20.851 5.29271C20.8256 5.47626 20.8387 5.66277 20.8896 5.84149C20.9406 6.02021 21.0284 6.18762 21.1479 6.33407C21.2675 6.48052 21.4165 6.60313 21.5863 6.69482ZM27.958 16.7018C27.569 16.654 27.1759 16.7542 26.8648 16.9805C26.5537 17.2067 26.35 17.5406 26.2984 17.9089C25.9874 20.288 24.7687 22.4774 22.8719 24.0646C20.9751 25.6519 18.531 26.5274 15.9999 26.5264H7.71672L8.67988 25.6141C8.95587 25.3512 9.11078 24.9954 9.11078 24.6246C9.11078 24.2539 8.95587 23.8981 8.67988 23.6352C7.23506 22.2613 6.2518 20.5132 5.85395 18.611C5.4561 16.7088 5.66146 14.7376 6.44416 12.9458C7.22685 11.154 8.55188 9.62158 10.2523 8.54168C11.9528 7.46178 13.9526 6.88266 15.9999 6.87727C16.3929 6.87727 16.7698 6.7294 17.0477 6.46619C17.3256 6.20299 17.4817 5.846 17.4817 5.47376C17.4817 5.10153 17.3256 4.74454 17.0477 4.48133C16.7698 4.21813 16.3929 4.07026 15.9999 4.07026C13.4946 4.08016 11.0428 4.75831 8.92556 6.02702C6.8083 7.29573 5.11119 9.10369 4.02864 11.2438C2.94609 13.3838 2.5219 15.7695 2.80465 18.1273C3.08741 20.4852 4.06568 22.7199 5.6274 24.5755L3.09354 26.9334C2.88793 27.1308 2.74864 27.3814 2.69326 27.6537C2.63788 27.9259 2.66888 28.2076 2.78236 28.4632C2.89352 28.7195 3.0823 28.939 3.3249 29.0938C3.5675 29.2487 3.85306 29.332 4.14561 29.3334H15.9999C19.2472 29.3338 22.3831 28.212 24.8193 26.1784C27.2555 24.1448 28.8246 21.3392 29.2323 18.2878C29.2594 18.1043 29.2479 17.9175 29.1984 17.7383C29.1489 17.559 29.0624 17.3908 28.9439 17.2434C28.8255 17.0959 28.6773 16.9722 28.5081 16.8792C28.3389 16.7863 28.1519 16.726 27.958 16.7018ZM25.4537 12.5896C25.184 12.4765 24.8847 12.4423 24.5943 12.4913L24.3276 12.5755L24.0609 12.7018L23.8386 12.8843C23.7053 13.0136 23.5996 13.1661 23.5274 13.3334C23.4398 13.5085 23.3991 13.7013 23.4089 13.8948C23.4046 14.082 23.4398 14.2681 23.5126 14.4422C23.5892 14.6106 23.7 14.7632 23.8386 14.8913C23.977 15.0214 24.1412 15.1243 24.3218 15.1941C24.5023 15.264 24.6956 15.2994 24.8907 15.2983C25.2837 15.2983 25.6606 15.1505 25.9384 14.8872C26.2163 14.624 26.3724 14.2671 26.3724 13.8948C26.3775 13.7107 26.3369 13.5281 26.2539 13.3615C26.0947 13.0242 25.8098 12.7544 25.4537 12.6036V12.5896Z" fill="white"/>
</svg>
