<svg width="32" height="32" viewBox="0 0 32 32" fill="none" xmlns="http://www.w3.org/2000/svg">
<path d="M13.3332 26.6667H6.6665C6.31288 26.6667 5.97374 26.5263 5.7237 26.2762C5.47365 26.0262 5.33317 25.687 5.33317 25.3334V6.66675C5.33317 6.31313 5.47365 5.97399 5.7237 5.72394C5.97374 5.47389 6.31288 5.33341 6.6665 5.33341H13.3332V9.33342C13.3332 10.3943 13.7546 11.4117 14.5047 12.1618C15.2549 12.912 16.2723 13.3334 17.3332 13.3334H22.6665C22.9297 13.3321 23.1867 13.2529 23.405 13.1058C23.6233 12.9587 23.7931 12.7502 23.8932 12.5067C23.9953 12.2639 24.0232 11.9963 23.9733 11.7377C23.9235 11.479 23.7982 11.2409 23.6132 11.0534L15.6132 3.05341C15.503 2.9497 15.3769 2.86419 15.2398 2.80008C15.2 2.79443 15.1596 2.79443 15.1198 2.80008L14.7465 2.66675H6.6665C5.60564 2.66675 4.58822 3.08818 3.83808 3.83832C3.08793 4.58847 2.6665 5.60588 2.6665 6.66675V25.3334C2.6665 26.3943 3.08793 27.4117 3.83808 28.1618C4.58822 28.912 5.60564 29.3334 6.6665 29.3334H13.3332C13.6868 29.3334 14.0259 29.1929 14.276 28.9429C14.526 28.6928 14.6665 28.3537 14.6665 28.0001C14.6665 27.6465 14.526 27.3073 14.276 27.0573C14.0259 26.8072 13.6868 26.6667 13.3332 26.6667ZM15.9998 7.21341L19.4532 10.6667H17.3332C16.9795 10.6667 16.6404 10.5263 16.3904 10.2762C16.1403 10.0262 15.9998 9.68704 15.9998 9.33342V7.21341ZM17.3332 17.3334C17.3332 16.9798 17.1927 16.6407 16.9426 16.3906C16.6926 16.1406 16.3535 16.0001 15.9998 16.0001H9.33317C8.97955 16.0001 8.64041 16.1406 8.39036 16.3906C8.14031 16.6407 7.99984 16.9798 7.99984 17.3334C7.99984 17.687 8.14031 18.0262 8.39036 18.2762C8.64041 18.5263 8.97955 18.6667 9.33317 18.6667H15.9998C16.3535 18.6667 16.6926 18.5263 16.9426 18.2762C17.1927 18.0262 17.3332 17.687 17.3332 17.3334ZM9.33317 13.3334H10.6665C11.0201 13.3334 11.3593 13.1929 11.6093 12.9429C11.8594 12.6928 11.9998 12.3537 11.9998 12.0001C11.9998 11.6465 11.8594 11.3073 11.6093 11.0573C11.3593 10.8072 11.0201 10.6667 10.6665 10.6667H9.33317C8.97955 10.6667 8.64041 10.8072 8.39036 11.0573C8.14031 11.3073 7.99984 11.6465 7.99984 12.0001C7.99984 12.3537 8.14031 12.6928 8.39036 12.9429C8.64041 13.1929 8.97955 13.3334 9.33317 13.3334ZM9.33317 21.3334C8.97955 21.3334 8.64041 21.4739 8.39036 21.7239C8.14031 21.974 7.99984 22.3131 7.99984 22.6667C7.99984 23.0204 8.14031 23.3595 8.39036 23.6096C8.64041 23.8596 8.97955 24.0001 9.33317 24.0001H11.9998C12.3535 24.0001 12.6926 23.8596 12.9426 23.6096C13.1927 23.3595 13.3332 23.0204 13.3332 22.6667C13.3332 22.3131 13.1927 21.974 12.9426 21.7239C12.6926 21.4739 12.3535 21.3334 11.9998 21.3334H9.33317ZM26.6665 20.2401V20.0001C26.6665 18.9392 26.2451 17.9218 25.4949 17.1717C24.7448 16.4215 23.7274 16.0001 22.6665 16.0001C21.6056 16.0001 20.5882 16.4215 19.8381 17.1717C19.0879 17.9218 18.6665 18.9392 18.6665 20.0001V20.2401C17.8884 20.5152 17.2145 21.0242 16.7371 21.6973C16.2597 22.3705 16.0022 23.1748 15.9998 24.0001V25.3334C15.9998 26.3943 16.4213 27.4117 17.1714 28.1618C17.9216 28.912 18.939 29.3334 19.9998 29.3334H25.3332C26.394 29.3334 27.4115 28.912 28.1616 28.1618C28.9117 27.4117 29.3332 26.3943 29.3332 25.3334V24.0001C29.3309 23.1748 29.0733 22.3705 28.5959 21.6973C28.1185 21.0242 27.4446 20.5152 26.6665 20.2401ZM22.6665 18.6667C23.0201 18.6667 23.3593 18.8072 23.6093 19.0573C23.8594 19.3073 23.9998 19.6465 23.9998 20.0001H21.3332C21.3332 19.6465 21.4736 19.3073 21.7237 19.0573C21.9737 18.8072 22.3129 18.6667 22.6665 18.6667ZM26.6665 25.3334C26.6665 25.687 26.526 26.0262 26.276 26.2762C26.0259 26.5263 25.6868 26.6667 25.3332 26.6667H19.9998C19.6462 26.6667 19.3071 26.5263 19.057 26.2762C18.807 26.0262 18.6665 25.687 18.6665 25.3334V24.0001C18.6665 23.6465 18.807 23.3073 19.057 23.0573C19.3071 22.8072 19.6462 22.6667 19.9998 22.6667H25.3332C25.6868 22.6667 26.0259 22.8072 26.276 23.0573C26.526 23.3073 26.6665 23.6465 26.6665 24.0001V25.3334Z" fill="white"/>
</svg>
