<svg width="32" height="32" viewBox="0 0 32 32" fill="none" xmlns="http://www.w3.org/2000/svg">
<path d="M27.6057 22.2801L24.3801 19.0534C24.2562 18.9284 24.1088 18.8292 23.9463 18.7615C23.7839 18.6939 23.6097 18.659 23.4337 18.659C23.2578 18.659 23.0836 18.6939 22.9211 18.7615C22.7587 18.8292 22.6113 18.9284 22.4874 19.0534L17.7156 23.8267C17.592 23.9513 17.4943 24.0991 17.428 24.2615C17.3616 24.424 17.328 24.5979 17.329 24.7734V28.0001C17.329 28.3537 17.4695 28.6928 17.7194 28.9429C17.9694 29.1929 18.3084 29.3334 18.6619 29.3334H21.8876C22.063 29.3344 22.2369 29.3008 22.3993 29.2344C22.5617 29.1681 22.7094 29.0703 22.8339 28.9467L27.6057 24.1734C27.7307 24.0494 27.8298 23.902 27.8975 23.7395C27.9652 23.577 28 23.4027 28 23.2267C28 23.0507 27.9652 22.8764 27.8975 22.714C27.8298 22.5515 27.7307 22.404 27.6057 22.2801V22.2801ZM21.3278 26.6667H19.9948V25.3334L23.4337 21.8934L24.7666 23.2267L21.3278 26.6667ZM13.3303 26.6667H7.99871C7.6452 26.6667 7.30617 26.5263 7.05621 26.2762C6.80624 26.0262 6.66581 25.687 6.66581 25.3334V6.66674C6.66581 6.31312 6.80624 5.97399 7.05621 5.72394C7.30617 5.47389 7.6452 5.33341 7.99871 5.33341H14.6632V9.33341C14.6632 10.3943 15.0845 11.4117 15.8344 12.1618C16.5843 12.912 17.6014 13.3334 18.6619 13.3334H22.6607V14.6667C22.6607 15.0204 22.8011 15.3595 23.0511 15.6095C23.301 15.8596 23.6401 16.0001 23.9936 16.0001C24.3471 16.0001 24.6861 15.8596 24.9361 15.6095C25.186 15.3595 25.3265 15.0204 25.3265 14.6667V12.0001C25.3265 12.0001 25.3265 12.0001 25.3265 11.9201C25.3126 11.7976 25.2858 11.6769 25.2465 11.5601V11.4401C25.1824 11.303 25.0969 11.177 24.9932 11.0667L16.9958 3.06675C16.8856 2.96304 16.7597 2.87752 16.6226 2.81341C16.5828 2.80776 16.5424 2.80776 16.5026 2.81341L16.0761 2.66675H7.99871C6.93819 2.66675 5.9211 3.08818 5.1712 3.83832C4.42129 4.58847 4 5.60588 4 6.66674V25.3334C4 26.3943 4.42129 27.4117 5.1712 28.1618C5.9211 28.912 6.93819 29.3334 7.99871 29.3334H13.3303C13.6838 29.3334 14.0229 29.1929 14.2728 28.9429C14.5228 28.6928 14.6632 28.3537 14.6632 28.0001C14.6632 27.6464 14.5228 27.3073 14.2728 27.0573C14.0229 26.8072 13.6838 26.6667 13.3303 26.6667ZM17.329 7.21341L20.7813 10.6667H18.6619C18.3084 10.6667 17.9694 10.5263 17.7194 10.2762C17.4695 10.0262 17.329 9.68703 17.329 9.33341V7.21341ZM10.6645 18.6667H18.6619C19.0155 18.6667 19.3545 18.5263 19.6044 18.2762C19.8544 18.0262 19.9948 17.687 19.9948 17.3334C19.9948 16.9798 19.8544 16.6406 19.6044 16.3906C19.3545 16.1405 19.0155 16.0001 18.6619 16.0001H10.6645C10.311 16.0001 9.97198 16.1405 9.72201 16.3906C9.47205 16.6406 9.33162 16.9798 9.33162 17.3334C9.33162 17.687 9.47205 18.0262 9.72201 18.2762C9.97198 18.5263 10.311 18.6667 10.6645 18.6667ZM10.6645 13.3334H11.9974C12.3509 13.3334 12.69 13.1929 12.9399 12.9429C13.1899 12.6928 13.3303 12.3537 13.3303 12.0001C13.3303 11.6465 13.1899 11.3073 12.9399 11.0573C12.69 10.8072 12.3509 10.6667 11.9974 10.6667H10.6645C10.311 10.6667 9.97198 10.8072 9.72201 11.0573C9.47205 11.3073 9.33162 11.6465 9.33162 12.0001C9.33162 12.3537 9.47205 12.6928 9.72201 12.9429C9.97198 13.1929 10.311 13.3334 10.6645 13.3334ZM13.3303 21.3334H10.6645C10.311 21.3334 9.97198 21.4739 9.72201 21.7239C9.47205 21.974 9.33162 22.3131 9.33162 22.6667C9.33162 23.0204 9.47205 23.3595 9.72201 23.6095C9.97198 23.8596 10.311 24.0001 10.6645 24.0001H13.3303C13.6838 24.0001 14.0229 23.8596 14.2728 23.6095C14.5228 23.3595 14.6632 23.0204 14.6632 22.6667C14.6632 22.3131 14.5228 21.974 14.2728 21.7239C14.0229 21.4739 13.6838 21.3334 13.3303 21.3334Z" fill="white"/>
</svg>
