<svg width="32" height="32" viewBox="0 0 32 32" fill="none" xmlns="http://www.w3.org/2000/svg">
<path d="M31 5.00135H18V2.00135C18 1.70335 17.868 1.42135 17.638 1.23135C17.41 1.04135 17.104 0.959348 16.816 1.01935L0.816 4.01935C0.342 4.10735 0 4.51935 0 5.00135V27.0013C0 27.4813 0.342 27.8953 0.816 27.9833L16.816 30.9833C16.876 30.9953 16.938 31.0013 17 31.0013C17.232 31.0013 17.458 30.9213 17.638 30.7713C17.868 30.5813 18 30.2973 18 30.0013V27.0013H31C31.552 27.0013 32 26.5533 32 26.0013V6.00135C32 5.44935 31.552 5.00135 31 5.00135ZM13.994 12.1113L12.994 21.1133C12.942 21.5713 12.582 21.9373 12.124 21.9933C12.082 21.9993 12.042 22.0013 12 22.0013C11.588 22.0013 11.212 21.7453 11.064 21.3533L9 15.8493L6.936 21.3533C6.776 21.7813 6.356 22.0433 5.892 21.9953C5.438 21.9473 5.074 21.5953 5.01 21.1413L4.01 14.1413C3.932 13.5953 4.312 13.0893 4.858 13.0113C5.406 12.9313 5.912 13.3133 5.99 13.8593L6.436 16.9873L8.062 12.6493C8.354 11.8693 9.642 11.8693 9.936 12.6493L11.468 16.7333L12.006 11.8893C12.068 11.3413 12.576 10.9493 13.11 11.0073C13.66 11.0693 14.054 11.5633 13.994 12.1113ZM30 25.0013H18V23.0013H27C27.552 23.0013 28 22.5533 28 22.0013C28 21.4493 27.552 21.0013 27 21.0013H18V19.0013H27C27.552 19.0013 28 18.5533 28 18.0013C28 17.4493 27.552 17.0013 27 17.0013H18V15.0013H27C27.552 15.0013 28 14.5533 28 14.0013C28 13.4493 27.552 13.0013 27 13.0013H18V11.0013H27C27.552 11.0013 28 10.5533 28 10.0013C28 9.44935 27.552 9.00135 27 9.00135H18V7.00135H30V25.0013Z" fill="#1565C0"/>
</svg>
